<?xml version="1.0" encoding="UTF-8"?>
<!-- Created with EazyDraw for Mac ( http://www.eazydraw.com/ ) -->

<svg
    version="1.1"
    xmlns:dc="http://purl.org/dc/elements/1.1/"
    xmlns:cc="http://creativecommons.org/ns#"
    xmlns:rdf="http://www.w3.org/1999/02/22-rdf-syntax-ns#"
    xmlns:svg="http://www.w3.org/2000/svg"
    xmlns:xlink="http://www.w3.org/1999/xlink"
    xmlns="http://www.w3.org/2000/svg"
    width="241.858028124"
    height="311.660555338"
    viewBox="0, 0, 241.858028124, 311.660555338"
    preserveAspectRatio="none"
    id="svg2">
   <defs
       id="defs_659E6D60"/>
   <metadata
       id="metadata7">
      <rdf:RDF>
         <cc:Work
             rdf:about="">
            <dc:format>image/svg+xml</dc:format>
            <dc:type rdf:resource="http://purl.org/dc/dcmitype/StillImage"/>
            <dc:title></dc:title>
         </cc:Work>
      </rdf:RDF>
   </metadata>
   <g
       id="Layer--1"
       style="fill:#000000;fill-opacity:1;stroke:#000000;stroke-opacity:1;fill-rule:nonzero;stroke-linecap:square;stroke-linejoin:miter;stroke-width:1;stroke-miterlimit:10">
      <path
          style="fill:none;stroke:#202020;stroke-width:7.5"
          id="F549BB60"
          d="M108.807918056,3.786991182769 C108.582019168,26.5729714058 103.943098579,44.2647101708 108.065364675,78.6869026328 C111.328700154,105.936759709 133.287370465,160.632763153 134.027375774,180.981504542 C134.522933553,194.608402865 136.780479286,215.314469939 128.833410284,238.797815185
C122.385778749,257.850368686 114.778432084,293.204823687 113.001390569,307.475921403"/>
      <path
          style="fill:none;stroke:#202020;stroke-width:7.5"
          id="1649BB60"
          d="M4.45181082121,110.784074887 C10.2241805402,109.548568031 12.5030737192,104.53567231 21.7689372962,107.077550615 C34.5636248612,110.587481283 127.405079196,114.662142706 193.845912862,113.748513161 C202.534406877,113.629037465 205.949943948,115.352909831 211.166947514,110.045894605
C213.651973548,107.517993131 214.830853047,99.1042896518 222.80940289,98.6685445468 C225.596246472,98.5163422708 235.083216018,97.5845271518 237.644837803,97.9264585498"/>
   </g>
</svg>
